<?xml version="1.0" encoding="UTF-8"?>
<svg xmlns="http://www.w3.org/2000/svg" width="756" height="696" viewBox="0 0 756 696" role="img" aria-label="CareerCoach logo">
  <defs>
    <linearGradient id="logoGradient" x1="22%" y1="5%" x2="76%" y2="95%">
      <stop offset="0%" stop-color="#45B7FF"/>
      <stop offset="50%" stop-color="#249BEC"/>
      <stop offset="100%" stop-color="#064D8D"/>
    </linearGradient>
  </defs>
  <g fill="url(#logoGradient)" shape-rendering="geometricPrecision">
    <path d="M 727 281 L 714 284 L 633 314 L 632 317 L 668 333 L 669 336 L 641 356 L 598 377 L 564 389 L 516 402 L 439 419 L 429 420 L 348 439 L 304 453 L 278 463 L 231 486 L 210 499 L 189 515 L 173 530 L 155 553 L 148 567 L 144 584 L 145 597 L 151 612 L 157 620 L 168 630 L 182 639 L 187 640 L 204 606 L 224 580 L 265 541 L 289 523 L 335 495 L 383 472 L 547 410 L 598 387 L 635 367 L 638 368 L 637 371 L 597 401 L 535 441 L 421 509 L 387 532 L 365 549 L 324 588 L 310 605 L 291 634 L 282 653 L 278 666 L 320 666 L 351 661 L 384 650 L 408 638 L 425 627 L 444 612 L 471 585 L 488 564 L 505 538 L 509 538 L 514 541 L 535 548 L 559 553 L 606 554 L 641 547 L 660 540 L 682 529 L 707 511 L 724 494 L 724 492 L 668 446 L 666 446 L 654 456 L 637 466 L 618 473 L 604 476 L 570 476 L 555 473 L 553 471 L 553 468 L 593 421 L 627 388 L 675 345 L 679 344 L 697 374 L 701 379 L 703 379 Z"/>
    <path d="M 468 74 L 427 51 L 410 44 L 380 35 L 333 28 L 297 28 L 265 32 L 239 38 L 215 46 L 198 53 L 165 71 L 137 91 L 117 109 L 100 127 L 84 147 L 67 173 L 52 202 L 38 241 L 32 266 L 28 298 L 29 345 L 33 371 L 40 399 L 50 426 L 62 451 L 80 480 L 93 497 L 119 524 L 132 535 L 136 536 L 146 522 L 169 499 L 194 481 L 194 478 L 178 465 L 158 444 L 137 413 L 123 382 L 114 344 L 113 299 L 119 265 L 128 239 L 137 221 L 152 198 L 178 169 L 211 144 L 241 129 L 270 120 L 303 115 L 340 116 L 368 122 L 390 130 L 409 140 L 412 140 L 423 128 L 446 109 L 468 95 L 483 88 L 483 86 Z"/>
    <path d="M 722 174 L 697 152 L 664 133 L 632 122 L 601 117 L 569 117 L 536 123 L 501 136 L 475 151 L 447 174 L 423 202 L 406 230 L 393 263 L 387 290 L 385 327 L 388 355 L 392 374 L 402 402 L 479 387 L 469 365 L 462 339 L 461 305 L 467 279 L 478 256 L 492 237 L 513 218 L 534 206 L 554 199 L 576 195 L 595 195 L 609 197 L 629 203 L 644 210 L 664 225 L 668 225 L 723 180 L 724 177 Z"/>
  </g>
</svg>
